<svg xmlns="http://www.w3.org/2000/svg" width="3000" height="2000" viewBox="0 0 3000 2000">
  <style>
    .anatomy { stroke:#777777; stroke-width:4; fill:none; }
    .label { font-family:Helvetica, Arial, sans-serif; font-size:42px; fill:#000000; }
    .small-label { font-family:Helvetica, Arial, sans-serif; font-size:34px; fill:#000000; }
    .tiny-label { font-family:Helvetica, Arial, sans-serif; font-size:30px; fill:#000000; }
    .yang { stroke:#1b7ea8; stroke-width:8; fill:none; }
    .yin { stroke:#d1615a; stroke-width:8; fill:none; }
    .phaseflip { stroke:#d1615a; stroke-width:6; fill:none; }
    .margin-label { font-family:Helvetica, Arial, sans-serif; font-size:48px; fill:#000000; writing-mode:vertical-rl; }
    .arrow { marker-end:url(#arrowhead); }
    .fascial { stroke:#000000; stroke-width:3; fill:none; stroke-dasharray:10 10; }
    .posterior { stroke:#000000; stroke-width:3; fill:none; stroke-dasharray:12 8; }
    .italic { font-style:italic; }
  </style>
  <defs>
    <marker id="arrowhead" markerWidth="20" markerHeight="20" refX="10" refY="5" orient="auto">
      <polygon points="0 0, 10 5, 0 10" fill="currentColor"/>
    </marker>
  </defs>

  <!-- Left margin labels -->
  <text x="150" y="300" class="margin-label">Anatomical Reality</text>
  <text x="150" y="900" class="margin-label">Functional Interpretation</text>
  <text x="150" y="1500" class="margin-label">Symbolic / Metaphorical</text>

  <!-- Ground line -->
  <line x1="500" y1="1750" x2="2800" y2="1750" stroke="#777777" stroke-width="4" />
  <text x="1800" y="1795" class="small-label">Ground contact interface</text>

  <!-- Skull -->
  <ellipse cx="1700" cy="350" rx="140" ry="180" class="anatomy"/>
  <text x="1760" y="290" class="small-label">Skull / Cranial vault</text>
  <text x="1700" y="220" class="small-label">Crown (vertex)</text>

  <!-- Cervical spine -->
  <path class="anatomy" d="M1700 430 L1700 580" />
  <rect x="1678" y="520" width="44" height="40" stroke="#000000" stroke-width="3" fill="none"/>
  <text x="1728" y="550" class="tiny-label">C1–C2</text>
  <text x="1760" y="540" class="small-label">C0–C1 junction</text>

  <!-- Thoracic/lumbar spine -->
  <path class="anatomy" d="M1700 580 L1700 1150" />
  <text x="1760" y="870" class="small-label">Thoracic / Lumbar spine</text>

  <!-- T12-L1 junction -->
  <circle cx="1700" cy="900" r="30" stroke="#000000" stroke-width="3" fill="none"/>
  <text x="1745" y="905" class="small-label">T12–L1</text>
  <line x1="1660" y1="900" x2="1600" y2="900" stroke="#000000" stroke-width="3" marker-end="url(#arrowhead)" />
  <line x1="1740" y1="900" x2="1800" y2="900" stroke="#000000" stroke-width="3" marker-end="url(#arrowhead)" />
  <text x="1550" y="860" class="small-label">Global tension exchange node</text>

  <!-- Rib cage -->
  <path class="anatomy" d="M1550 580 C1500 680, 1480 780, 1485 880 C1490 980, 1520 1060, 1580 1120
    C1620 1160, 1680 1180, 1700 1185 C1720 1180, 1780 1160, 1820 1120 C1880 1060, 1910 980, 1915 880
    C1920 780, 1900 680, 1850 580"/>

  <!-- Pelvis -->
  <path class="anatomy" d="M1580 1180 C1540 1220, 1520 1270, 1520 1320 C1600 1350, 1670 1370, 1700 1375
    C1730 1370, 1800 1350, 1880 1320 C1880 1270, 1860 1220, 1820 1180"/>
  <text x="1710" y="1320" class="small-label">Pelvic bowl</text>

  <!-- Femurs and tibias -->
  <path class="anatomy" d="M1620 1375 L1580 1525" />
  <path class="anatomy" d="M1780 1375 L1820 1525" />
  <path class="anatomy" d="M1580 1525 L1560 1680" />
  <path class="anatomy" d="M1820 1525 L1840 1680" />

  <!-- Feet -->
  <path class="anatomy" d="M1560 1680 C1500 1690, 1470 1710, 1450 1735 C1440 1745, 1440 1750, 1445 1760 C1480 1765, 1520 1765, 1560 1755"/>
  <path class="anatomy" d="M1840 1680 C1900 1690, 1930 1710, 1950 1735 C1960 1745, 1960 1750, 1955 1760 C1920 1765, 1880 1765, 1840 1755"/>

  <!-- Subtalar joints -->
  <circle cx="1565" cy="1680" r="16" stroke="#000000" stroke-width="3" fill="none"/>
  <circle cx="1835" cy="1680" r="16" stroke="#000000" stroke-width="3" fill="none"/>
  <text x="1880" y="1670" class="tiny-label">Subtalar joint</text>
  <text x="1880" y="1715" class="tiny-label">Midfoot (Chopart's)</text>
  <text x="1880" y="1760" class="tiny-label">Hallux MTP (windlass)</text>

  <!-- Arms -->
  <path class="anatomy" d="M1550 700 C1470 740, 1410 800, 1370 880 C1330 960, 1310 1040, 1305 1120"/>
  <path class="anatomy" d="M1305 1120 C1295 1200, 1300 1280, 1320 1360"/>
  <path class="anatomy" d="M1320 1360 C1340 1410, 1375 1450, 1420 1480 C1460 1505, 1500 1515, 1540 1510
    C1520 1460, 1505 1420, 1485 1390 C1460 1350, 1405 1310, 1360 1290 C1340 1305, 1330 1330, 1320 1360"/>
  <path class="anatomy" d="M1850 700 C1930 740, 1990 800, 2030 880 C2070 960, 2090 1040, 2095 1120"/>
  <path class="anatomy" d="M2095 1120 C2105 1200, 2100 1280, 2080 1360"/>
  <path class="anatomy" d="M2080 1360 C2060 1410, 2025 1450, 1980 1480 C1940 1505, 1900 1515, 1860 1510
    C1880 1460, 1895 1420, 1915 1390 C1940 1350, 1995 1310, 2040 1290 C2060 1305, 2070 1330, 2080 1360"/>

  <!-- Phase flip zones -->
  <circle cx="1700" cy="520" r="70" class="phaseflip"/>
  <text x="1795" y="510" class="small-label">Phase Flip — anterior → posterior (Head)</text>
  <circle cx="1310" cy="1205" r="60" class="phaseflip"/>
  <circle cx="2090" cy="1205" r="60" class="phaseflip"/>
  <text x="1150" y="1160" class="small-label">Phase Flip — distal → proximal (Hands, multiplanar)</text>
  <circle cx="1700" cy="1705" r="80" class="phaseflip"/>
  <text x="1765" y="1700" class="small-label">Phase Flip — yield → stiffen (Feet)</text>

  <!-- Eyes and vestibular -->
  <circle cx="1660" cy="330" r="10" fill="#1b7ea8"/>
  <circle cx="1740" cy="330" r="10" fill="#1b7ea8"/>
  <text x="1610" y="305" class="tiny-label">Eyes</text>
  <circle cx="1820" cy="360" r="12" fill="#1b7ea8"/>
  <text x="1850" y="365" class="tiny-label">Vestibular</text>

  <!-- Yang intake paths -->
  <path class="yang arrow" d="M1660 330 C1670 340, 1685 350, 1700 360"/>
  <path class="yang arrow" d="M1740 330 C1730 340, 1715 350, 1700 360"/>
  <path class="yang arrow" d="M1820 360 C1795 390, 1760 420, 1725 440"/>
  <path class="yang arrow" d="M1725 440 C1715 460, 1708 485, 1705 510"/>
  <text x="1860" y="420" class="small-label">Yang intake / directional flow</text>

  <!-- Yang down spine -->
  <path class="yang arrow" d="M1700 520 C1700 620, 1700 720, 1700 820"/>
  <path class="yang arrow" d="M1700 820 C1700 910, 1700 1000, 1700 1100"/>
  <path class="yang arrow" d="M1700 1100 C1705 1180, 1710 1250, 1715 1320"/>
  <path class="yang arrow" d="M1715 1320 C1700 1380, 1670 1430, 1630 1470"/>
  <path class="yang arrow" d="M1715 1320 C1730 1380, 1760 1430, 1800 1470"/>
  <path class="yang arrow" d="M1630 1470 C1600 1540, 1580 1610, 1570 1675"/>
  <path class="yang arrow" d="M1800 1470 C1830 1540, 1850 1610, 1860 1675"/>
1510 C1970 1495, 1995 1475, 2010 1450 C2025 1425, 2035 1400, 2040 1375"/>

  <!-- Arm fascial connections -->
  <path class="fascial arrow" d="M1310 1205 C1320 1120, 1360 1040, 1420 980 C1480 920, 1520 880, 1570 840"/>
  <path class="fascial arrow" d="M2090 1205 C2080 1120, 2040 1040, 1980 980 C1920 920, 1880 880, 1830 840"/>
  <text x="1300" y="1040" class="small-label">Hand-generated micro-adjustments modulate vertical alignment</text>

  <!-- Posterior chain -->
  <path class="posterior" d="M1560 1745 C1580 1700, 1600 1655, 1620 1605 C1640 1545, 1660 1480, 1680 1420
    C1690 1360, 1700 1300, 1710 1240 C1720 1160, 1725 1080, 1725 1000 C1725 920, 1720 840, 1715 760
    C1710 700, 1705 640, 1700 600 C1695 560, 1695 520, 1700 490"/>
  <text x="1780" y="720" class="tiny-label">Posterior fascial chain</text>

  <!-- Anterior chain -->
  <path class="fascial" d="M1440 1470 C1460 1420, 1485 1370, 1510 1320 C1540 1260, 1565 1200, 1585 1140
    C1600 1080, 1610 1020, 1620 960 C1630 900, 1645 840, 1660 780 C1675 740, 1685 700, 1690 660"/>
  <text x="1490" y="1180" class="tiny-label">Anterior deep chain</text>

  <!-- Lateral chain -->
  <path class="fascial" d="M1835 1700 C1870 1640, 1900 1575, 1920 1510 C1940 1450, 1955 1390, 1965 1330
    C1975 1270, 1980 1210, 1990 1150 C2005 1080, 2025 1010, 2050 950"/>
  <text x="2030" y="1040" class="tiny-label">Lateral fascial chain</text>

  <!-- Cross-system predictive paths -->
  <path class="fascial arrow" d="M1760 520 C1850 620, 1900 760, 1905 900 C1910 1040, 1850 1180, 1800 1300
    C1760 1380, 1720 1460, 1700 1540 C1690 1600, 1685 1660, 1685 1705"/>
  <text x="1920" y="1040" class="tiny-label italic">Jaw tension ↔ Subtalar angle (top–down tension shift, 2–3 gait cycles)</text>

  <path class="fascial arrow" d="M1500 1450 C1520 1370, 1550 1290, 1585 1230 C1620 1170, 1655 1120, 1690 1080
    C1720 1040, 1750 980, 1770 930 C1785 880, 1795 820, 1800 760"/>
  <text x="1805" y="830" class="tiny-label italic">Thumb–index precision grip ↔ Temporalis / masseter activity (Hand–Head coupling)</text>

  <path class="fascial arrow" d="M1960 1450 C1940 1400, 1920 1350, 1890 1310 C1860 1270, 1820 1235, 1780 1210 C1760 1200, 1740 1190, 1720 1185"/>
  <path class="fascial arrow" d="M1720 1185 C1680 1240, 1660 1300, 1655 1365"/>
  <path class="fascial arrow" d="M1655 1365 C1640 1445, 1625 1520, 1610 1600 C1605 1640, 1600 1680, 1595 1700"/>
  <text x="1925" y="1200" class="tiny-label italic">Hand tension ↔ Pelvic rotation ↔ Foot pronation (lateral-to-vertical influence chain)</text>
</svg>
